HIERARCHY
ROOT RootJoint
{
    OFFSET   0.000000   0.000000   0.000000
    CHANNELS 6 Xposition Yposition Zposition Xrotation Yrotation Zrotation
    JOINT pelvis_lowerback
    {
        OFFSET   0.000000   0.093605   0.000000
        CHANNELS 3 Xrotation Yrotation Zrotation
        JOINT lowerback_torso
        {
            OFFSET   0.000000   0.100000   0.000000
            CHANNELS 3 Xrotation Yrotation Zrotation
            JOINT torso_head
            {
                OFFSET   0.000000   0.282350   0.000000
                CHANNELS 3 Xrotation Yrotation Zrotation
                End Site
                {
                    OFFSET   0.000000   0.192650   0.000000
                }
            }
            JOINT rTorso_Clavicle
            {
                OFFSET  -0.001000   0.157500   0.000000
                CHANNELS 3 Xrotation Yrotation Zrotation
                JOINT rShoulder
                {
                    OFFSET  -0.117647   0.000000   0.000000
                    CHANNELS 3 Xrotation Yrotation Zrotation
                    JOINT rElbow
                    {
                        OFFSET  -0.245000   0.000000   0.000000
                        CHANNELS 3 Xrotation Yrotation Zrotation
                        JOINT rWrist
                        {
                            OFFSET  -0.240000   0.000000   0.000000
                            CHANNELS 3 Xrotation Yrotation Zrotation
                            End Site
                            {
                                OFFSET  -0.116353  -0.002500   0.000000
                            }
                        }
                    }
                }
            }
            JOINT lTorso_Clavicle
            {
                OFFSET   0.001000   0.157500   0.000000
                CHANNELS 3 Xrotation Yrotation Zrotation
                JOINT lShoulder
                {
                    OFFSET   0.117647   0.000000   0.000000
                    CHANNELS 3 Xrotation Yrotation Zrotation
                    JOINT lElbow
                    {
                        OFFSET   0.245000   0.000000   0.000000
                        CHANNELS 3 Xrotation Yrotation Zrotation
                        JOINT lWrist
                        {
                            OFFSET   0.240000   0.000000   0.000000
                            CHANNELS 3 Xrotation Yrotation Zrotation
                            End Site
                            {
                                OFFSET   0.116353  -0.002500   0.000000
                            }
                        }
                    }
                }
            }
        }
    }
    JOINT rHip
    {
        OFFSET  -0.100000  -0.051395   0.000000
        CHANNELS 3 Xrotation Yrotation Zrotation
        JOINT rKnee
        {
            OFFSET   0.000000  -0.410000   0.000000
            CHANNELS 3 Xrotation Yrotation Zrotation
            JOINT rAnkle
            {
                OFFSET   0.000000  -0.390000   0.000000
                CHANNELS 3 Xrotation Yrotation Zrotation
                JOINT rToeJoint
                {
                    OFFSET   0.000000  -0.050000   0.130000
                    CHANNELS 3 Xrotation Yrotation Zrotation
                    End Site
                    {
                        OFFSET  -0.010000   0.002000   0.060000
                    }
                }
            }
        }
    }
    JOINT lHip
    {
        OFFSET   0.100000  -0.051395   0.000000
        CHANNELS 3 Xrotation Yrotation Zrotation
        JOINT lKnee
        {
            OFFSET   0.000000  -0.410000   0.000000
            CHANNELS 3 Xrotation Yrotation Zrotation
            JOINT lAnkle
            {
                OFFSET   0.000000  -0.390000   0.000000
                CHANNELS 3 Xrotation Yrotation Zrotation
                JOINT lToeJoint
                {
                    OFFSET   0.000000  -0.050000   0.130000
                    CHANNELS 3 Xrotation Yrotation Zrotation
                    End Site
                    {
                        OFFSET   0.010000   0.002000   0.060000
                    }
                }
            }
        }
    }
}
MOTION
Frames: 11
Frame Time:   0.008333
 -2.364332   0.856442   3.884357  -6.898774 -14.130771  -4.995961   7.389938  -1.737096  -1.544168   6.583182  -5.542583   5.276332   5.114456  -7.270151   3.356188  -5.495966   3.406947   1.290782 -35.026503  -9.680540  33.701198 -179.991719  88.510470 179.991237  -3.201076   5.421816  -5.990398  -1.952445  -7.847737   4.088791 -21.159315 -29.359966 -52.916372 -179.998234 -65.734653 -179.995001   0.733947  -9.992946   0.849567 -14.599652 -17.228181 -23.905659  37.707288  -0.000514   0.001959   0.040270  -4.745298   7.298356 -20.633031  -0.000056  -0.000288 -11.764154   7.914708  18.059723  43.261158  -0.000268   0.000446 -26.264651   4.308299   3.881572   0.697269   0.000176  -0.000314
 -2.362423   0.856967   3.884613  -6.893265 -14.211574  -5.036976   7.370277  -1.714564  -1.546497   6.714578  -5.548430   5.307337   5.152246  -7.309050   3.417075  -5.472811   3.152944   1.353751 -35.083674  -9.852794  33.480811 -179.999363  88.593083 179.999253  -3.124109   5.509465  -5.833091  -1.805945  -7.624787   3.953002 -20.685105 -29.427933 -52.974402 -179.998487 -65.894209 -179.995084   0.807413  -9.992568   0.683723 -14.470802 -17.226668 -23.911119  37.247975  -0.000732   0.001861   0.466962  -4.704086   7.453525 -20.746887   0.000006  -0.000164 -11.649680   8.000088  17.933130  43.072485  -0.000386   0.000575 -26.400123   4.384221   4.022128   0.839228   0.000171  -0.000234
 -2.360524   0.857562   3.884886  -6.878319 -14.267809  -5.063213   7.339769  -1.691356  -1.545842   6.837011  -5.556141   5.337498   5.185611  -7.344312   3.474239  -5.446502   2.881855   1.409788 -35.136168 -10.035896  33.259310 179.993029  88.682688 -179.992823  -3.056268   5.534172  -5.730040  -1.641403  -7.391473   3.820399 -20.212042 -29.481464 -53.025571 -179.998728 -66.048627 -179.995253   0.875745  -9.993281   0.495337 -14.338626 -17.236058 -23.922031  36.775337  -0.000926   0.001712   0.907619  -4.678801   7.587947 -20.879459   0.000038  -0.000063 -11.541045   8.088954  17.793957  42.861732  -0.000526   0.000663 -26.503149   4.453472   4.157316   0.969407   0.000173  -0.000150
 -2.358683   0.858231   3.885203  -6.889142 -14.350467  -5.073601   7.318726  -1.651616  -1.562552   6.959749  -5.550587   5.358497   5.217490  -7.376270   3.527710  -5.419089   2.617835   1.465878 -35.183643 -10.215040  33.049382 179.986395  88.769770 -179.985962  -2.993622   5.530139  -5.651762  -1.475844  -7.155825   3.695005 -19.754296 -29.521950 -53.065968 -179.998946 -66.195582 -179.995498   0.941046  -9.997843   0.309151 -14.204903 -17.253797 -23.951662  36.307143  -0.000966   0.001728   1.353083  -4.674717   7.705786 -21.000973   0.000049   0.000072 -11.457892   8.175498  17.645168  42.751805  -0.000523   0.000648 -26.455090   4.511753   4.290466   1.084487   0.000153  -0.000128
 -2.356898   0.858873   3.885563  -6.904409 -14.445427  -5.085315   7.290396  -1.608167  -1.572467   7.071834  -5.539361   5.376669   5.248367  -7.405769   3.576918  -5.393146   2.366479   1.513088 -35.228916 -10.383901  32.849446 179.980434  88.852348 -179.979845  -2.934936   5.512759  -5.582160  -1.317035  -6.926094   3.579910 -19.321109 -29.555599 -53.100648 -179.999109 -66.332743 -179.995787   1.003344  -9.995961   0.134362 -14.081497 -17.281685 -23.981822  35.855484  -0.000931   0.001808   1.784836  -4.682645   7.812488 -21.104764   0.000049   0.000191 -11.363706   8.272448  17.501603  42.638450  -0.000519   0.000640 -26.415784   4.573892   4.416577   1.194835   0.000138  -0.000109
 -2.355178   0.859470   3.885941  -6.920502 -14.542232  -5.096562   7.257128  -1.566725  -1.580199   7.170847  -5.527309   5.394878   5.277080  -7.433244   3.623417  -5.369782   2.129757   1.554582 -35.272833 -10.541759  32.660475 179.975209  88.929513 -179.974526  -2.878921   5.493026  -5.520196  -1.168612  -6.707704   3.474668 -18.915309 -29.585216 -53.130358 -179.999230 -66.460730 -179.996101   1.063082  -9.991507  -0.029866 -13.967436 -17.313355 -24.013133  35.425253  -0.000873   0.001875   2.196780  -4.696098   7.909946 -21.196236   0.000043   0.000278 -11.269206   8.370088  17.363219  42.530876  -0.000506   0.000624 -26.385232   4.636097   4.534059   1.296030   0.000128  -0.000092
 -2.353527   0.860017   3.886327  -6.937617 -14.637689  -5.107243   7.220442  -1.528193  -1.586963   7.257959  -5.515900   5.412978   5.303583  -7.458889   3.667266  -5.348884   1.908148   1.592071 -35.315220 -10.688835  32.482941 179.970752  89.001271 -179.970022  -2.825141   5.474840  -5.464161  -1.031253  -6.502642   3.378186 -18.537012 -29.612347 -53.156398 -179.999323 -66.580038 -179.996424   1.120443  -9.987204  -0.184559 -13.860914 -17.345968 -24.045396  35.018240  -0.000809   0.001908   2.586986  -4.712226   7.999574 -21.277969   0.000034   0.000336 -11.176741   8.465908  17.230573  42.431900  -0.000484   0.000598 -26.362839   4.696594   4.643165   1.388774   0.000121  -0.000077
 -2.351874   0.860698   3.886864  -6.973171 -14.693391  -5.121910   7.185331  -1.497632  -1.576783   7.339955  -5.519580   5.427390   5.347808  -7.494292   3.703520  -5.337621   1.666158   1.652346 -35.390720 -10.867369  32.284656 179.937960  89.182489 -179.936935  -2.783612   5.537828  -5.338186  -0.903064  -6.287653   3.276010 -18.114151 -29.665129 -53.204175 -179.999369 -66.722190 -179.996555   1.168213 -10.011427  -0.332624 -13.678369 -17.392564 -24.079959  34.535183  -0.000918   0.001882   3.064366  -4.713449   8.136165 -21.453759   0.000060   0.000465 -11.029171   8.536609  17.079805  42.278278  -0.000518   0.000634 -26.327495   4.756588   4.780914   1.498803   0.000096  -0.000065
 -2.350242   0.861399   3.887442  -7.001296 -14.745563  -5.133465   7.140162  -1.469151  -1.565208   7.411564  -5.526695   5.442989   5.388202  -7.527179   3.736198  -5.324828   1.421937   1.710111 -35.461382 -11.048462  32.091146 179.892017  89.363500 -179.890769  -2.749492   5.540259  -5.253080  -0.771625  -6.075298   3.179536 -17.706590 -29.710847 -53.247539 -179.999413 -66.856551 -179.996727   1.212648 -10.014317  -0.488609 -13.504428 -17.449136 -24.110557  34.064698  -0.000964   0.001854   3.538660  -4.720900   8.264133 -21.642649   0.000075   0.000597 -10.880797   8.609126  16.928493  42.110893  -0.000558   0.000669 -26.288413   4.812570   4.911664   1.599578   0.000082  -0.000054
 -2.348637   0.862070   3.888033  -7.025901 -14.800346  -5.142240   7.091415  -1.443318  -1.555198   7.473300  -5.535069   5.458253   5.425189  -7.557679   3.766632  -5.311838   1.185187   1.763070 -35.527780 -11.222889  31.906298 179.824422  89.535125 -179.823030  -2.718885   5.518330  -5.190032  -0.646494  -5.870724   3.091885 -17.322007 -29.750543 -53.284713 -179.999446 -66.982523 -179.996928   1.255049 -10.013818  -0.637894 -13.344298 -17.510468 -24.143226  33.609273  -0.000966   0.001849   4.000364  -4.740940   8.379079 -21.817633   0.000066   0.000711 -10.736678   8.684531  16.779001  41.947438  -0.000584   0.000689 -26.253241   4.866922   5.033295   1.691915   0.000074  -0.000046
 -2.347068   0.862693   3.888628  -7.049436 -14.858490  -5.149890   7.041446  -1.420250  -1.547144   7.526743  -5.544167   5.472815   5.459464  -7.586085   3.795106  -5.299569   0.960100   1.811666 -35.590551 -11.387789  31.731465 179.704157  89.696035 -179.702690  -2.690182   5.489311  -5.138336  -0.530183  -5.676904   3.012428 -16.962297 -29.786122 -53.316900 -179.999471 -67.100155 -179.997145   1.295758 -10.011339  -0.777603 -13.196564 -17.572687 -24.177651  33.173829  -0.000939   0.001850   4.442829  -4.766805   8.483882 -21.976846   0.000049   0.000793 -10.598300   8.761439  16.633804  41.795241  -0.000591   0.000691 -26.225005   4.920365   5.145908   1.776557   0.000072  -0.000038
